<svg width="20" height="36" viewBox="0 0 20 36" fill="none" xmlns="http://www.w3.org/2000/svg">
<g id="&#240;&#159;&#166;&#134; icon &#34;open book&#34;">
<g id="&#240;&#159;&#166;&#134; icon &#34;google docs&#34;">
<g id="&#240;&#159;&#166;&#134; icon &#34;rocket&#34;">
<path id="Vector" d="M15.4831 15.184L12.383 25.552H6.36736L3.26729 15.184C2.38329 12.2275 2.94473 9.00592 4.76928 6.56506L8.66412 1.35466C9.02536 0.871364 9.72498 0.871364 10.0862 1.35466L13.981 6.56506C15.8056 9.00592 16.367 12.2275 15.4831 15.184Z" stroke="#6B6585" stroke-width="2" stroke-linecap="round" stroke-linejoin="round"/>
<path id="Vector_2" d="M6.36572 30.2773C6.36572 33.4209 9.37353 34.9927 9.37353 34.9927C9.37353 34.9927 12.3813 33.4209 12.3813 30.2773" stroke="#6B6585" stroke-width="2" stroke-linecap="round" stroke-linejoin="round"/>
<path id="Vector_3" d="M4.11141 18.4844C-1.15225 22.4138 1.85555 28.701 1.85555 28.701L6.36727 25.5574" stroke="#6B6585" stroke-width="2" stroke-linecap="round" stroke-linejoin="round"/>
<path id="Vector_4" d="M15.2817 18.4844C20.5454 22.4138 17.5376 28.701 17.5376 28.701L13.0259 25.5574" stroke="#6B6585" stroke-width="2" stroke-linecap="round" stroke-linejoin="round"/>
<path id="Vector_5" d="M9.37353 16.1231C7.71232 16.1231 6.36572 14.7157 6.36572 12.9795C6.36572 11.2434 7.71232 9.83594 9.37353 9.83594C11.0347 9.83594 12.3813 11.2434 12.3813 12.9795C12.3813 14.7157 11.0347 16.1231 9.37353 16.1231Z" stroke="#6B6585" stroke-width="2" stroke-linecap="round" stroke-linejoin="round"/>
</g>
</g>
</g>
</svg>
