<svg width="32" height="32" viewBox="0 0 32 32" fill="none" xmlns="http://www.w3.org/2000/svg">
<g id="Group 1246">
<circle id="Ellipse 117" cx="16" cy="16" r="16" fill="#F2F2F7"/>
<g id="&#240;&#159;&#166;&#134; icon &#34;calendar outline&#34;">
<g id="Group">
<path id="Vector" d="M20 10.6668H19.3333V10.0002C19.3333 9.82335 19.2631 9.65378 19.1381 9.52876C19.013 9.40373 18.8435 9.3335 18.6667 9.3335C18.4899 9.3335 18.3203 9.40373 18.1953 9.52876C18.0702 9.65378 18 9.82335 18 10.0002V10.6668H14V10.0002C14 9.82335 13.9298 9.65378 13.8047 9.52876C13.6797 9.40373 13.5101 9.3335 13.3333 9.3335C13.1565 9.3335 12.987 9.40373 12.8619 9.52876C12.7369 9.65378 12.6667 9.82335 12.6667 10.0002V10.6668H12C11.4696 10.6668 10.9609 10.8775 10.5858 11.2526C10.2107 11.6277 10 12.1364 10 12.6668V20.6668C10 21.1973 10.2107 21.706 10.5858 22.081C10.9609 22.4561 11.4696 22.6668 12 22.6668H20C20.5304 22.6668 21.0391 22.4561 21.4142 22.081C21.7893 21.706 22 21.1973 22 20.6668V12.6668C22 12.1364 21.7893 11.6277 21.4142 11.2526C21.0391 10.8775 20.5304 10.6668 20 10.6668ZM12 12.0002H12.6667V12.6668C12.6667 12.8436 12.7369 13.0132 12.8619 13.1382C12.987 13.2633 13.1565 13.3335 13.3333 13.3335C13.5101 13.3335 13.6797 13.2633 13.8047 13.1382C13.9298 13.0132 14 12.8436 14 12.6668V12.0002H18V12.6668C18 12.8436 18.0702 13.0132 18.1953 13.1382C18.3203 13.2633 18.4899 13.3335 18.6667 13.3335C18.8435 13.3335 19.013 13.2633 19.1381 13.1382C19.2631 13.0132 19.3333 12.8436 19.3333 12.6668V12.0002H20C20.1768 12.0002 20.3464 12.0704 20.4714 12.1954C20.5964 12.3204 20.6667 12.49 20.6667 12.6668V15.3335H11.3333V12.6668C11.3333 12.49 11.4036 12.3204 11.5286 12.1954C11.6536 12.0704 11.8232 12.0002 12 12.0002ZM20 21.3335H12C11.8232 21.3335 11.6536 21.2633 11.5286 21.1382C11.4036 21.0132 11.3333 20.8436 11.3333 20.6668V16.6668H20.6667V20.6668C20.6667 20.8436 20.5964 21.0132 20.4714 21.1382C20.3464 21.2633 20.1768 21.3335 20 21.3335Z" fill="#565359"/>
<path id="Vector_2" d="M13.3337 19.3333C13.7018 19.3333 14.0003 19.0349 14.0003 18.6667C14.0003 18.2985 13.7018 18 13.3337 18C12.9655 18 12.667 18.2985 12.667 18.6667C12.667 19.0349 12.9655 19.3333 13.3337 19.3333Z" fill="#565359"/>
<path id="Vector_3" d="M18.6663 18H15.9997C15.8229 18 15.6533 18.0702 15.5283 18.1953C15.4032 18.3203 15.333 18.4899 15.333 18.6667C15.333 18.8435 15.4032 19.013 15.5283 19.1381C15.6533 19.2631 15.8229 19.3333 15.9997 19.3333H18.6663C18.8432 19.3333 19.0127 19.2631 19.1377 19.1381C19.2628 19.013 19.333 18.8435 19.333 18.6667C19.333 18.4899 19.2628 18.3203 19.1377 18.1953C19.0127 18.0702 18.8432 18 18.6663 18Z" fill="#565359"/>
</g>
</g>
</g>
</svg>
