<svg width="32" height="32" viewBox="0 0 32 32" fill="none" xmlns="http://www.w3.org/2000/svg">
<g id="Group 1336">
<circle id="Ellipse 117" cx="16" cy="16" r="16" fill="#F2F2F7"/>
<g id="&#240;&#159;&#166;&#134; icon &#34;people outline&#34;">
<g id="Group">
<path id="Vector" d="M13.82 15.3348C14.4195 15.3348 15.0055 15.1571 15.5039 14.824C16.0023 14.491 16.3908 14.0176 16.6202 13.4638C16.8496 12.91 16.9097 12.3005 16.7927 11.7126C16.6758 11.1246 16.3871 10.5846 15.9632 10.1607C15.5393 9.73681 14.9993 9.44814 14.4113 9.33119C13.8234 9.21424 13.2139 9.27426 12.6601 9.50367C12.1063 9.73307 11.6329 10.1216 11.2999 10.62C10.9668 11.1184 10.7891 11.7044 10.7891 12.3039C10.7891 13.1078 11.1084 13.8787 11.6768 14.4471C12.2452 15.0155 13.0161 15.3348 13.82 15.3348ZM13.82 10.7884C14.1197 10.7884 14.4127 10.8773 14.662 11.0438C14.9112 11.2103 15.1054 11.447 15.2201 11.7239C15.3348 12.0009 15.3648 12.3056 15.3064 12.5995C15.2479 12.8935 15.1035 13.1636 14.8916 13.3755C14.6797 13.5874 14.4096 13.7318 14.1157 13.7902C13.8217 13.8487 13.517 13.8187 13.2401 13.704C12.9631 13.5893 12.7265 13.3951 12.5599 13.1458C12.3934 12.8966 12.3045 12.6036 12.3045 12.3039C12.3045 11.902 12.4642 11.5165 12.7484 11.2323C13.0326 10.9481 13.4181 10.7884 13.82 10.7884Z" fill="#565359"/>
<path id="Vector_2" d="M19.8816 16.8501C20.3312 16.8501 20.7707 16.7168 21.1445 16.467C21.5184 16.2172 21.8097 15.8622 21.9818 15.4468C22.1538 15.0315 22.1988 14.5744 22.1111 14.1334C22.0234 13.6925 21.8069 13.2874 21.489 12.9695C21.1711 12.6516 20.766 12.4351 20.3251 12.3474C19.8841 12.2597 19.4271 12.3047 19.0117 12.4767C18.5963 12.6488 18.2413 12.9402 17.9915 13.314C17.7417 13.6878 17.6084 14.1273 17.6084 14.5769C17.6084 15.1798 17.8479 15.758 18.2742 16.1843C18.7005 16.6106 19.2787 16.8501 19.8816 16.8501ZM19.8816 13.8192C20.0315 13.8192 20.178 13.8636 20.3026 13.9469C20.4272 14.0301 20.5243 14.1485 20.5817 14.2869C20.639 14.4254 20.654 14.5778 20.6248 14.7247C20.5955 14.8717 20.5234 15.0067 20.4174 15.1127C20.3114 15.2187 20.1764 15.2909 20.0294 15.3201C19.8824 15.3493 19.7301 15.3343 19.5916 15.277C19.4532 15.2196 19.3348 15.1225 19.2516 14.9979C19.1683 14.8733 19.1239 14.7268 19.1239 14.5769C19.1239 14.376 19.2037 14.1832 19.3458 14.0411C19.4879 13.899 19.6806 13.8192 19.8816 13.8192Z" fill="#565359"/>
<path id="Vector_3" d="M19.8817 17.608C19.042 17.6089 18.2264 17.8888 17.563 18.4036C16.8208 17.6643 15.8763 17.1614 14.8486 16.9582C13.821 16.755 12.7562 16.8606 11.7885 17.2618C10.8208 17.663 9.99352 18.3417 9.41107 19.2124C8.82862 20.0832 8.51704 21.1068 8.51562 22.1544C8.51562 22.3554 8.59546 22.5481 8.73756 22.6902C8.87966 22.8323 9.0724 22.9121 9.27336 22.9121C9.47433 22.9121 9.66706 22.8323 9.80916 22.6902C9.95126 22.5481 10.0311 22.3554 10.0311 22.1544C10.0311 21.1496 10.4303 20.1859 11.1408 19.4754C11.8513 18.7649 12.815 18.3657 13.8198 18.3657C14.8246 18.3657 15.7883 18.7649 16.4988 19.4754C17.2093 20.1859 17.6085 21.1496 17.6085 22.1544C17.6085 22.3554 17.6883 22.5481 17.8304 22.6902C17.9725 22.8323 18.1652 22.9121 18.3662 22.9121C18.5672 22.9121 18.7599 22.8323 18.902 22.6902C19.0441 22.5481 19.1239 22.3554 19.1239 22.1544C19.1257 21.2667 18.9015 20.3931 18.4723 19.616C18.8071 19.3514 19.2097 19.1864 19.634 19.1399C20.0582 19.0934 20.487 19.1672 20.8712 19.353C21.2555 19.5388 21.5796 19.829 21.8066 20.1904C22.0337 20.5519 22.1543 20.9699 22.1549 21.3967C22.1549 21.5976 22.2347 21.7904 22.3768 21.9325C22.5189 22.0746 22.7116 22.1544 22.9126 22.1544C23.1136 22.1544 23.3063 22.0746 23.4484 21.9325C23.5905 21.7904 23.6703 21.5976 23.6703 21.3967C23.6703 20.3918 23.2712 19.4282 22.5607 18.7177C21.8502 18.0071 20.8865 17.608 19.8817 17.608Z" fill="#565359"/>
</g>
</g>
</g>
</svg>
