<svg width="32" height="32" viewBox="0 0 32 32" fill="none" xmlns="http://www.w3.org/2000/svg">
<g id="Group 1246">
<circle id="Ellipse 117" cx="16" cy="16" r="16" fill="#F2F2F7"/>
<g id="&#240;&#159;&#166;&#134; icon &#34;rocket&#34;">
<path id="Vector" d="M19.054 14.6786L17.5293 19.5578H14.5706L13.0458 14.6786C12.611 13.2873 12.8872 11.7712 13.7846 10.6226L15.7002 8.17058C15.8779 7.94314 16.222 7.94314 16.3996 8.17058L18.3152 10.6226C19.2126 11.7712 19.4887 13.2873 19.054 14.6786Z" stroke="#565359" stroke-linecap="round" stroke-linejoin="round"/>
<path id="Vector_2" d="M14.5713 21.7812C14.5713 23.2606 16.0506 24.0003 16.0506 24.0003C16.0506 24.0003 17.53 23.2606 17.53 21.7812" stroke="#565359" stroke-linecap="round" stroke-linejoin="round"/>
<path id="Vector_3" d="M13.461 16.2324C10.8721 18.0816 12.3515 21.0403 12.3515 21.0403L14.5705 19.561" stroke="#565359" stroke-linecap="round" stroke-linejoin="round"/>
<path id="Vector_4" d="M18.9552 16.2324C21.5441 18.0816 20.0647 21.0403 20.0647 21.0403L17.8457 19.561" stroke="#565359" stroke-linecap="round" stroke-linejoin="round"/>
<path id="Vector_5" d="M16.0506 15.1213C15.2336 15.1213 14.5713 14.459 14.5713 13.642C14.5713 12.8249 15.2336 12.1626 16.0506 12.1626C16.8677 12.1626 17.53 12.8249 17.53 13.642C17.53 14.459 16.8677 15.1213 16.0506 15.1213Z" stroke="#565359" stroke-linecap="round" stroke-linejoin="round"/>
</g>
</g>
</svg>
