<svg width="15" height="14" viewBox="0 0 15 14" fill="none" xmlns="http://www.w3.org/2000/svg">
<g id="Group 1315">
<path id="Vector" d="M12.5263 0H2.21053C1.62426 0 1.062 0.232894 0.647448 0.647448C0.232894 1.062 0 1.62426 0 2.21053V13.2632C0.000225 13.3937 0.0351391 13.5219 0.101169 13.6345C0.167198 13.7472 0.261972 13.8402 0.375789 13.9042C0.485915 13.9666 0.610261 13.9996 0.736842 14C0.869093 14 0.998896 13.9643 1.11263 13.8968L4.42105 11.8926C4.54334 11.8198 4.6841 11.784 4.82632 11.7895H12.5263C13.1126 11.7895 13.6748 11.5566 14.0894 11.142C14.5039 10.7275 14.7368 10.1652 14.7368 9.57895V2.21053C14.7368 1.62426 14.5039 1.062 14.0894 0.647448C13.6748 0.232894 13.1126 0 12.5263 0ZM13.2632 9.57895C13.2632 9.77437 13.1855 9.96179 13.0473 10.1C12.9092 10.2382 12.7217 10.3158 12.5263 10.3158H4.82632C4.42387 10.3155 4.02897 10.425 3.68421 10.6326L1.47368 11.9589V2.21053C1.47368 2.0151 1.55132 1.82769 1.6895 1.6895C1.82769 1.55132 2.0151 1.47368 2.21053 1.47368H12.5263C12.7217 1.47368 12.9092 1.55132 13.0473 1.6895C13.1855 1.82769 13.2632 2.0151 13.2632 2.21053V9.57895Z" fill="#958FA9"/>
<rect id="Rectangle 446" x="2.94775" y="2.94531" width="8.84211" height="1.47368" rx="0.736842" fill="#958FA9"/>
<rect id="Rectangle 447" x="2.94775" y="5.1543" width="8.84211" height="1.47368" rx="0.736842" fill="#958FA9"/>
<rect id="Rectangle 448" x="2.94775" y="7.36914" width="6.63158" height="1.47368" rx="0.736842" fill="#958FA9"/>
</g>
</svg>
