<svg width="25" height="25" viewBox="0 0 25 25" fill="none" xmlns="http://www.w3.org/2000/svg">
<g clip-path="url(#clip0_1_1181)">
<path d="M17.4492 11.6438C17.4492 14.4038 15.2092 16.6438 12.4492 16.6438C9.68922 16.6438 7.44922 14.4038 7.44922 11.6438H5.44922C5.44922 15.1738 8.05922 18.0738 11.4492 18.5638V21.6438H13.4492V18.5638C16.8392 18.0738 19.4492 15.1738 19.4492 11.6438H17.4492Z" fill="white"/>
<path d="M12.4492 14.6438C14.1092 14.6438 15.4492 13.3038 15.4492 11.6438V5.6438C15.4492 3.9838 14.1092 2.6438 12.4492 2.6438C10.7892 2.6438 9.44922 3.9838 9.44922 5.6438V11.6438C9.44922 13.3038 10.7892 14.6438 12.4492 14.6438ZM11.4492 5.6438C11.4492 5.0938 11.8992 4.6438 12.4492 4.6438C12.9992 4.6438 13.4492 5.0938 13.4492 5.6438V11.6438C13.4492 12.1938 12.9992 12.6438 12.4492 12.6438C11.8992 12.6438 11.4492 12.1938 11.4492 11.6438V5.6438Z" fill="black"/>
<path d="M12.4492 14.6438C14.1092 14.6438 15.4492 13.3038 15.4492 11.6438V5.6438C15.4492 3.9838 14.1092 2.6438 12.4492 2.6438C10.7892 2.6438 9.44922 3.9838 9.44922 5.6438V11.6438C9.44922 13.3038 10.7892 14.6438 12.4492 14.6438Z" fill="white"/>
</g>
<defs>
<clipPath id="clip0_1_1181">
<rect width="24" height="24" fill="white" transform="translate(0.449219 0.643799)"/>
</clipPath>
</defs>
</svg>
