<svg width="398" height="45" viewBox="0 0 398 45" fill="none" xmlns="http://www.w3.org/2000/svg">
<rect x="0.881836" y="5.82031" width="2" height="33.0117" rx="1" fill="url(#paint0_linear_1_1341)"/>
<rect x="10.8818" y="5.82031" width="2" height="33.0117" rx="1" fill="url(#paint1_linear_1_1341)"/>
<rect x="55.8818" y="5.82031" width="2" height="33.0117" rx="1" fill="url(#paint2_linear_1_1341)"/>
<rect x="85.8818" y="5.82031" width="2" height="33.0117" rx="1" fill="url(#paint3_linear_1_1341)"/>
<rect x="65.8818" y="5.82031" width="2" height="33.0117" rx="1" fill="url(#paint4_linear_1_1341)"/>
<rect x="75.8818" y="5.82031" width="2" height="33.0117" rx="1" fill="url(#paint5_linear_1_1341)"/>
<rect x="15.8818" y="10.582" width="2" height="23.4883" rx="1" fill="url(#paint6_linear_1_1341)"/>
<rect x="50.8818" y="10.582" width="2" height="23.4883" rx="1" fill="url(#paint7_linear_1_1341)"/>
<rect x="70.8818" y="10.582" width="2" height="23.4883" rx="1" fill="url(#paint8_linear_1_1341)"/>
<rect x="90.9404" y="10.582" width="2" height="23.4883" rx="1" fill="url(#paint9_linear_1_1341)"/>
<rect x="20.8818" y="18.6055" width="2" height="7.44141" rx="1" fill="url(#paint10_linear_1_1341)"/>
<rect x="30.8818" y="18.6055" width="2" height="7.44141" rx="1" fill="url(#paint11_linear_1_1341)"/>
<rect x="35.8818" y="18.6055" width="2" height="7.44141" rx="1" fill="url(#paint12_linear_1_1341)"/>
<rect x="25.8818" y="17.0703" width="2" height="10.5117" rx="1" fill="url(#paint13_linear_1_1341)"/>
<rect x="40.8818" y="17.0703" width="2" height="10.5117" rx="1" fill="url(#paint14_linear_1_1341)"/>
<rect x="95.9404" y="17.0703" width="2" height="10.5117" rx="1" fill="url(#paint15_linear_1_1341)"/>
<rect x="45.8818" y="13.0664" width="2" height="18.5195" rx="1" fill="url(#paint16_linear_1_1341)"/>
<rect x="5.88184" width="2" height="44.6523" rx="1" fill="url(#paint17_linear_1_1341)"/>
<rect x="60.8818" width="2" height="44.6523" rx="1" fill="url(#paint18_linear_1_1341)"/>
<rect x="80.8818" width="2" height="44.6523" rx="1" fill="url(#paint19_linear_1_1341)"/>
<rect x="100.599" y="5.82031" width="2" height="33.0117" rx="1" fill="url(#paint20_linear_1_1341)"/>
<rect x="110.599" y="5.82031" width="2" height="33.0117" rx="1" fill="url(#paint21_linear_1_1341)"/>
<rect x="155.599" y="5.82031" width="2" height="33.0117" rx="1" fill="url(#paint22_linear_1_1341)"/>
<rect x="185.599" y="5.82031" width="2" height="33.0117" rx="1" fill="url(#paint23_linear_1_1341)"/>
<rect x="165.599" y="5.82031" width="2" height="33.0117" rx="1" fill="url(#paint24_linear_1_1341)"/>
<rect x="175.599" y="5.82031" width="2" height="33.0117" rx="1" fill="url(#paint25_linear_1_1341)"/>
<rect x="115.599" y="10.582" width="2" height="23.4883" rx="1" fill="url(#paint26_linear_1_1341)"/>
<rect x="150.599" y="10.582" width="2" height="23.4883" rx="1" fill="url(#paint27_linear_1_1341)"/>
<rect x="170.599" y="10.582" width="2" height="23.4883" rx="1" fill="url(#paint28_linear_1_1341)"/>
<rect x="190.657" y="10.582" width="2" height="23.4883" rx="1" fill="url(#paint29_linear_1_1341)"/>
<rect x="120.599" y="18.6055" width="2" height="7.44141" rx="1" fill="url(#paint30_linear_1_1341)"/>
<rect x="130.599" y="18.6055" width="2" height="7.44141" rx="1" fill="url(#paint31_linear_1_1341)"/>
<rect x="135.599" y="18.6055" width="2" height="7.44141" rx="1" fill="url(#paint32_linear_1_1341)"/>
<rect x="125.599" y="17.0703" width="2" height="10.5117" rx="1" fill="url(#paint33_linear_1_1341)"/>
<rect x="140.599" y="17.0703" width="2" height="10.5117" rx="1" fill="url(#paint34_linear_1_1341)"/>
<rect x="195.657" y="17.0703" width="2" height="10.5117" rx="1" fill="url(#paint35_linear_1_1341)"/>
<rect x="145.599" y="13.0664" width="2" height="18.5195" rx="1" fill="url(#paint36_linear_1_1341)"/>
<rect x="105.599" width="2" height="44.6523" rx="1" fill="url(#paint37_linear_1_1341)"/>
<rect x="160.599" width="2" height="44.6523" rx="1" fill="url(#paint38_linear_1_1341)"/>
<rect x="180.599" width="2" height="44.6523" rx="1" fill="url(#paint39_linear_1_1341)"/>
<rect x="340.032" y="5.82031" width="2" height="33.0117" rx="1" fill="url(#paint40_linear_1_1341)"/>
<rect x="350.032" y="5.82031" width="2" height="33.0117" rx="1" fill="url(#paint41_linear_1_1341)"/>
<rect x="395.032" y="5.82031" width="2" height="33.0117" rx="1" fill="url(#paint42_linear_1_1341)"/>
<rect x="355.032" y="10.582" width="2" height="23.4883" rx="1" fill="url(#paint43_linear_1_1341)"/>
<rect x="390.032" y="10.582" width="2" height="23.4883" rx="1" fill="url(#paint44_linear_1_1341)"/>
<rect x="360.032" y="18.6055" width="2" height="7.44141" rx="1" fill="url(#paint45_linear_1_1341)"/>
<rect x="370.032" y="18.6055" width="2" height="7.44141" rx="1" fill="url(#paint46_linear_1_1341)"/>
<rect x="375.032" y="18.6055" width="2" height="7.44141" rx="1" fill="url(#paint47_linear_1_1341)"/>
<rect x="365.032" y="17.0703" width="2" height="10.5117" rx="1" fill="url(#paint48_linear_1_1341)"/>
<rect x="380.032" y="17.0703" width="2" height="10.5117" rx="1" fill="url(#paint49_linear_1_1341)"/>
<rect x="385.032" y="13.0664" width="2" height="18.5195" rx="1" fill="url(#paint50_linear_1_1341)"/>
<rect x="345.032" width="2" height="44.6523" rx="1" fill="url(#paint51_linear_1_1341)"/>
<rect x="200.315" y="5.82031" width="2" height="33.0117" rx="1" fill="url(#paint52_linear_1_1341)"/>
<rect x="210.315" y="5.82031" width="2" height="33.0117" rx="1" fill="url(#paint53_linear_1_1341)"/>
<rect x="255.315" y="5.82031" width="2" height="33.0117" rx="1" fill="url(#paint54_linear_1_1341)"/>
<rect x="285.315" y="5.82031" width="2" height="33.0117" rx="1" fill="url(#paint55_linear_1_1341)"/>
<rect x="265.315" y="5.82031" width="2" height="33.0117" rx="1" fill="url(#paint56_linear_1_1341)"/>
<rect x="275.315" y="5.82031" width="2" height="33.0117" rx="1" fill="url(#paint57_linear_1_1341)"/>
<rect x="215.315" y="10.582" width="2" height="23.4883" rx="1" fill="url(#paint58_linear_1_1341)"/>
<rect x="250.315" y="10.582" width="2" height="23.4883" rx="1" fill="url(#paint59_linear_1_1341)"/>
<rect x="270.315" y="10.582" width="2" height="23.4883" rx="1" fill="url(#paint60_linear_1_1341)"/>
<rect x="290.374" y="10.582" width="2" height="23.4883" rx="1" fill="url(#paint61_linear_1_1341)"/>
<rect x="220.315" y="18.6055" width="2" height="7.44141" rx="1" fill="url(#paint62_linear_1_1341)"/>
<rect x="300.374" y="18.6055" width="2" height="7.44141" rx="1" fill="url(#paint63_linear_1_1341)"/>
<rect x="320.374" y="18.6055" width="2" height="7.44141" rx="1" fill="url(#paint64_linear_1_1341)"/>
<rect x="230.315" y="18.6055" width="2" height="7.44141" rx="1" fill="url(#paint65_linear_1_1341)"/>
<rect x="310.374" y="18.6055" width="2" height="7.44141" rx="1" fill="url(#paint66_linear_1_1341)"/>
<rect x="330.374" y="18.6055" width="2" height="7.44141" rx="1" fill="url(#paint67_linear_1_1341)"/>
<rect x="235.315" y="18.6055" width="2" height="7.44141" rx="1" fill="url(#paint68_linear_1_1341)"/>
<rect x="315.374" y="18.6055" width="2" height="7.44141" rx="1" fill="url(#paint69_linear_1_1341)"/>
<rect x="335.374" y="18.6055" width="2" height="7.44141" rx="1" fill="url(#paint70_linear_1_1341)"/>
<rect x="225.315" y="17.0703" width="2" height="10.5117" rx="1" fill="url(#paint71_linear_1_1341)"/>
<rect x="305.374" y="17.0703" width="2" height="10.5117" rx="1" fill="url(#paint72_linear_1_1341)"/>
<rect x="325.374" y="17.0703" width="2" height="10.5117" rx="1" fill="url(#paint73_linear_1_1341)"/>
<rect x="240.315" y="17.0703" width="2" height="10.5117" rx="1" fill="url(#paint74_linear_1_1341)"/>
<rect x="295.374" y="17.0703" width="2" height="10.5117" rx="1" fill="url(#paint75_linear_1_1341)"/>
<rect x="245.315" y="13.0664" width="2" height="18.5195" rx="1" fill="url(#paint76_linear_1_1341)"/>
<rect x="205.315" width="2" height="44.6523" rx="1" fill="url(#paint77_linear_1_1341)"/>
<rect x="260.315" width="2" height="44.6523" rx="1" fill="url(#paint78_linear_1_1341)"/>
<rect x="280.315" width="2" height="44.6523" rx="1" fill="url(#paint79_linear_1_1341)"/>
<defs>
<linearGradient id="paint0_linear_1_1341" x1="1.88184" y1="5.82031" x2="1.88184" y2="38.832" gradientUnits="userSpaceOnUse">
<stop stop-color="#9992B0"/>
<stop offset="1" stop-color="#5B566D"/>
</linearGradient>
<linearGradient id="paint1_linear_1_1341" x1="11.8818" y1="5.82031" x2="11.8818" y2="38.832" gradientUnits="userSpaceOnUse">
<stop stop-color="#9992B0"/>
<stop offset="1" stop-color="#5B566D"/>
</linearGradient>
<linearGradient id="paint2_linear_1_1341" x1="56.8818" y1="5.82031" x2="56.8818" y2="38.832" gradientUnits="userSpaceOnUse">
<stop stop-color="#9992B0"/>
<stop offset="1" stop-color="#5B566D"/>
</linearGradient>
<linearGradient id="paint3_linear_1_1341" x1="86.8818" y1="5.82031" x2="86.8818" y2="38.832" gradientUnits="userSpaceOnUse">
<stop stop-color="#9992B0"/>
<stop offset="1" stop-color="#5B566D"/>
</linearGradient>
<linearGradient id="paint4_linear_1_1341" x1="66.8818" y1="5.82031" x2="66.8818" y2="38.832" gradientUnits="userSpaceOnUse">
<stop stop-color="#9992B0"/>
<stop offset="1" stop-color="#5B566D"/>
</linearGradient>
<linearGradient id="paint5_linear_1_1341" x1="76.8818" y1="5.82031" x2="76.8818" y2="38.832" gradientUnits="userSpaceOnUse">
<stop stop-color="#9992B0"/>
<stop offset="1" stop-color="#5B566D"/>
</linearGradient>
<linearGradient id="paint6_linear_1_1341" x1="16.8818" y1="10.582" x2="16.8818" y2="34.0703" gradientUnits="userSpaceOnUse">
<stop stop-color="#9992B0"/>
<stop offset="1" stop-color="#5B566D"/>
</linearGradient>
<linearGradient id="paint7_linear_1_1341" x1="51.8818" y1="10.582" x2="51.8818" y2="34.0703" gradientUnits="userSpaceOnUse">
<stop stop-color="#9992B0"/>
<stop offset="1" stop-color="#5B566D"/>
</linearGradient>
<linearGradient id="paint8_linear_1_1341" x1="71.8818" y1="10.582" x2="71.8818" y2="34.0703" gradientUnits="userSpaceOnUse">
<stop stop-color="#9992B0"/>
<stop offset="1" stop-color="#5B566D"/>
</linearGradient>
<linearGradient id="paint9_linear_1_1341" x1="91.9404" y1="10.582" x2="91.9404" y2="34.0703" gradientUnits="userSpaceOnUse">
<stop stop-color="#9992B0"/>
<stop offset="1" stop-color="#5B566D"/>
</linearGradient>
<linearGradient id="paint10_linear_1_1341" x1="21.8818" y1="18.6055" x2="21.8818" y2="26.0469" gradientUnits="userSpaceOnUse">
<stop stop-color="#9992B0"/>
<stop offset="1" stop-color="#5B566D"/>
</linearGradient>
<linearGradient id="paint11_linear_1_1341" x1="31.8818" y1="18.6055" x2="31.8818" y2="26.0469" gradientUnits="userSpaceOnUse">
<stop stop-color="#9992B0"/>
<stop offset="1" stop-color="#5B566D"/>
</linearGradient>
<linearGradient id="paint12_linear_1_1341" x1="36.8818" y1="18.6055" x2="36.8818" y2="26.0469" gradientUnits="userSpaceOnUse">
<stop stop-color="#9992B0"/>
<stop offset="1" stop-color="#5B566D"/>
</linearGradient>
<linearGradient id="paint13_linear_1_1341" x1="26.8818" y1="17.0703" x2="26.8818" y2="27.582" gradientUnits="userSpaceOnUse">
<stop stop-color="#9992B0"/>
<stop offset="1" stop-color="#5B566D"/>
</linearGradient>
<linearGradient id="paint14_linear_1_1341" x1="41.8818" y1="17.0703" x2="41.8818" y2="27.582" gradientUnits="userSpaceOnUse">
<stop stop-color="#9992B0"/>
<stop offset="1" stop-color="#5B566D"/>
</linearGradient>
<linearGradient id="paint15_linear_1_1341" x1="96.9404" y1="17.0703" x2="96.9404" y2="27.582" gradientUnits="userSpaceOnUse">
<stop stop-color="#9992B0"/>
<stop offset="1" stop-color="#5B566D"/>
</linearGradient>
<linearGradient id="paint16_linear_1_1341" x1="46.8818" y1="13.0664" x2="46.8818" y2="31.5859" gradientUnits="userSpaceOnUse">
<stop stop-color="#9992B0"/>
<stop offset="1" stop-color="#5B566D"/>
</linearGradient>
<linearGradient id="paint17_linear_1_1341" x1="6.88184" y1="0" x2="6.88184" y2="44.6523" gradientUnits="userSpaceOnUse">
<stop stop-color="#9992B0"/>
<stop offset="1" stop-color="#5B566D"/>
</linearGradient>
<linearGradient id="paint18_linear_1_1341" x1="61.8818" y1="0" x2="61.8818" y2="44.6523" gradientUnits="userSpaceOnUse">
<stop stop-color="#9992B0"/>
<stop offset="1" stop-color="#5B566D"/>
</linearGradient>
<linearGradient id="paint19_linear_1_1341" x1="81.8818" y1="0" x2="81.8818" y2="44.6523" gradientUnits="userSpaceOnUse">
<stop stop-color="#9992B0"/>
<stop offset="1" stop-color="#5B566D"/>
</linearGradient>
<linearGradient id="paint20_linear_1_1341" x1="101.599" y1="5.82031" x2="101.599" y2="38.832" gradientUnits="userSpaceOnUse">
<stop stop-color="#9992B0"/>
<stop offset="1" stop-color="#5B566D"/>
</linearGradient>
<linearGradient id="paint21_linear_1_1341" x1="111.599" y1="5.82031" x2="111.599" y2="38.832" gradientUnits="userSpaceOnUse">
<stop stop-color="#9992B0"/>
<stop offset="1" stop-color="#5B566D"/>
</linearGradient>
<linearGradient id="paint22_linear_1_1341" x1="156.599" y1="5.82031" x2="156.599" y2="38.832" gradientUnits="userSpaceOnUse">
<stop stop-color="#9992B0"/>
<stop offset="1" stop-color="#5B566D"/>
</linearGradient>
<linearGradient id="paint23_linear_1_1341" x1="186.599" y1="5.82031" x2="186.599" y2="38.832" gradientUnits="userSpaceOnUse">
<stop stop-color="#9992B0"/>
<stop offset="1" stop-color="#5B566D"/>
</linearGradient>
<linearGradient id="paint24_linear_1_1341" x1="166.599" y1="5.82031" x2="166.599" y2="38.832" gradientUnits="userSpaceOnUse">
<stop stop-color="#9992B0"/>
<stop offset="1" stop-color="#5B566D"/>
</linearGradient>
<linearGradient id="paint25_linear_1_1341" x1="176.599" y1="5.82031" x2="176.599" y2="38.832" gradientUnits="userSpaceOnUse">
<stop stop-color="#9992B0"/>
<stop offset="1" stop-color="#5B566D"/>
</linearGradient>
<linearGradient id="paint26_linear_1_1341" x1="116.599" y1="10.582" x2="116.599" y2="34.0703" gradientUnits="userSpaceOnUse">
<stop stop-color="#9992B0"/>
<stop offset="1" stop-color="#5B566D"/>
</linearGradient>
<linearGradient id="paint27_linear_1_1341" x1="151.599" y1="10.582" x2="151.599" y2="34.0703" gradientUnits="userSpaceOnUse">
<stop stop-color="#9992B0"/>
<stop offset="1" stop-color="#5B566D"/>
</linearGradient>
<linearGradient id="paint28_linear_1_1341" x1="171.599" y1="10.582" x2="171.599" y2="34.0703" gradientUnits="userSpaceOnUse">
<stop stop-color="#9992B0"/>
<stop offset="1" stop-color="#5B566D"/>
</linearGradient>
<linearGradient id="paint29_linear_1_1341" x1="191.657" y1="10.582" x2="191.657" y2="34.0703" gradientUnits="userSpaceOnUse">
<stop stop-color="#9992B0"/>
<stop offset="1" stop-color="#5B566D"/>
</linearGradient>
<linearGradient id="paint30_linear_1_1341" x1="121.599" y1="18.6055" x2="121.599" y2="26.0469" gradientUnits="userSpaceOnUse">
<stop stop-color="#9992B0"/>
<stop offset="1" stop-color="#5B566D"/>
</linearGradient>
<linearGradient id="paint31_linear_1_1341" x1="131.599" y1="18.6055" x2="131.599" y2="26.0469" gradientUnits="userSpaceOnUse">
<stop stop-color="#9992B0"/>
<stop offset="1" stop-color="#5B566D"/>
</linearGradient>
<linearGradient id="paint32_linear_1_1341" x1="136.599" y1="18.6055" x2="136.599" y2="26.0469" gradientUnits="userSpaceOnUse">
<stop stop-color="#9992B0"/>
<stop offset="1" stop-color="#5B566D"/>
</linearGradient>
<linearGradient id="paint33_linear_1_1341" x1="126.599" y1="17.0703" x2="126.599" y2="27.582" gradientUnits="userSpaceOnUse">
<stop stop-color="#9992B0"/>
<stop offset="1" stop-color="#5B566D"/>
</linearGradient>
<linearGradient id="paint34_linear_1_1341" x1="141.599" y1="17.0703" x2="141.599" y2="27.582" gradientUnits="userSpaceOnUse">
<stop stop-color="#9992B0"/>
<stop offset="1" stop-color="#5B566D"/>
</linearGradient>
<linearGradient id="paint35_linear_1_1341" x1="196.657" y1="17.0703" x2="196.657" y2="27.582" gradientUnits="userSpaceOnUse">
<stop stop-color="#9992B0"/>
<stop offset="1" stop-color="#5B566D"/>
</linearGradient>
<linearGradient id="paint36_linear_1_1341" x1="146.599" y1="13.0664" x2="146.599" y2="31.5859" gradientUnits="userSpaceOnUse">
<stop stop-color="#9992B0"/>
<stop offset="1" stop-color="#5B566D"/>
</linearGradient>
<linearGradient id="paint37_linear_1_1341" x1="106.599" y1="0" x2="106.599" y2="44.6523" gradientUnits="userSpaceOnUse">
<stop stop-color="#9992B0"/>
<stop offset="1" stop-color="#5B566D"/>
</linearGradient>
<linearGradient id="paint38_linear_1_1341" x1="161.599" y1="0" x2="161.599" y2="44.6523" gradientUnits="userSpaceOnUse">
<stop stop-color="#9992B0"/>
<stop offset="1" stop-color="#5B566D"/>
</linearGradient>
<linearGradient id="paint39_linear_1_1341" x1="181.599" y1="0" x2="181.599" y2="44.6523" gradientUnits="userSpaceOnUse">
<stop stop-color="#9992B0"/>
<stop offset="1" stop-color="#5B566D"/>
</linearGradient>
<linearGradient id="paint40_linear_1_1341" x1="341.032" y1="5.82031" x2="341.032" y2="38.832" gradientUnits="userSpaceOnUse">
<stop stop-color="#9992B0"/>
<stop offset="1" stop-color="#5B566D"/>
</linearGradient>
<linearGradient id="paint41_linear_1_1341" x1="351.032" y1="5.82031" x2="351.032" y2="38.832" gradientUnits="userSpaceOnUse">
<stop stop-color="#9992B0"/>
<stop offset="1" stop-color="#5B566D"/>
</linearGradient>
<linearGradient id="paint42_linear_1_1341" x1="396.032" y1="5.82031" x2="396.032" y2="38.832" gradientUnits="userSpaceOnUse">
<stop stop-color="#9992B0"/>
<stop offset="1" stop-color="#5B566D"/>
</linearGradient>
<linearGradient id="paint43_linear_1_1341" x1="356.032" y1="10.582" x2="356.032" y2="34.0703" gradientUnits="userSpaceOnUse">
<stop stop-color="#9992B0"/>
<stop offset="1" stop-color="#5B566D"/>
</linearGradient>
<linearGradient id="paint44_linear_1_1341" x1="391.032" y1="10.582" x2="391.032" y2="34.0703" gradientUnits="userSpaceOnUse">
<stop stop-color="#9992B0"/>
<stop offset="1" stop-color="#5B566D"/>
</linearGradient>
<linearGradient id="paint45_linear_1_1341" x1="361.032" y1="18.6055" x2="361.032" y2="26.0469" gradientUnits="userSpaceOnUse">
<stop stop-color="#9992B0"/>
<stop offset="1" stop-color="#5B566D"/>
</linearGradient>
<linearGradient id="paint46_linear_1_1341" x1="371.032" y1="18.6055" x2="371.032" y2="26.0469" gradientUnits="userSpaceOnUse">
<stop stop-color="#9992B0"/>
<stop offset="1" stop-color="#5B566D"/>
</linearGradient>
<linearGradient id="paint47_linear_1_1341" x1="376.032" y1="18.6055" x2="376.032" y2="26.0469" gradientUnits="userSpaceOnUse">
<stop stop-color="#9992B0"/>
<stop offset="1" stop-color="#5B566D"/>
</linearGradient>
<linearGradient id="paint48_linear_1_1341" x1="366.032" y1="17.0703" x2="366.032" y2="27.582" gradientUnits="userSpaceOnUse">
<stop stop-color="#9992B0"/>
<stop offset="1" stop-color="#5B566D"/>
</linearGradient>
<linearGradient id="paint49_linear_1_1341" x1="381.032" y1="17.0703" x2="381.032" y2="27.582" gradientUnits="userSpaceOnUse">
<stop stop-color="#9992B0"/>
<stop offset="1" stop-color="#5B566D"/>
</linearGradient>
<linearGradient id="paint50_linear_1_1341" x1="386.032" y1="13.0664" x2="386.032" y2="31.5859" gradientUnits="userSpaceOnUse">
<stop stop-color="#9992B0"/>
<stop offset="1" stop-color="#5B566D"/>
</linearGradient>
<linearGradient id="paint51_linear_1_1341" x1="346.032" y1="0" x2="346.032" y2="44.6523" gradientUnits="userSpaceOnUse">
<stop stop-color="#9992B0"/>
<stop offset="1" stop-color="#5B566D"/>
</linearGradient>
<linearGradient id="paint52_linear_1_1341" x1="201.315" y1="5.82031" x2="201.315" y2="38.832" gradientUnits="userSpaceOnUse">
<stop stop-color="#9992B0"/>
<stop offset="1" stop-color="#5B566D"/>
</linearGradient>
<linearGradient id="paint53_linear_1_1341" x1="211.315" y1="5.82031" x2="211.315" y2="38.832" gradientUnits="userSpaceOnUse">
<stop stop-color="#9992B0"/>
<stop offset="1" stop-color="#5B566D"/>
</linearGradient>
<linearGradient id="paint54_linear_1_1341" x1="256.315" y1="5.82031" x2="256.315" y2="38.832" gradientUnits="userSpaceOnUse">
<stop stop-color="#9992B0"/>
<stop offset="1" stop-color="#5B566D"/>
</linearGradient>
<linearGradient id="paint55_linear_1_1341" x1="286.315" y1="5.82031" x2="286.315" y2="38.832" gradientUnits="userSpaceOnUse">
<stop stop-color="#9992B0"/>
<stop offset="1" stop-color="#5B566D"/>
</linearGradient>
<linearGradient id="paint56_linear_1_1341" x1="266.315" y1="5.82031" x2="266.315" y2="38.832" gradientUnits="userSpaceOnUse">
<stop stop-color="#9992B0"/>
<stop offset="1" stop-color="#5B566D"/>
</linearGradient>
<linearGradient id="paint57_linear_1_1341" x1="276.315" y1="5.82031" x2="276.315" y2="38.832" gradientUnits="userSpaceOnUse">
<stop stop-color="#9992B0"/>
<stop offset="1" stop-color="#5B566D"/>
</linearGradient>
<linearGradient id="paint58_linear_1_1341" x1="216.315" y1="10.582" x2="216.315" y2="34.0703" gradientUnits="userSpaceOnUse">
<stop stop-color="#9992B0"/>
<stop offset="1" stop-color="#5B566D"/>
</linearGradient>
<linearGradient id="paint59_linear_1_1341" x1="251.315" y1="10.582" x2="251.315" y2="34.0703" gradientUnits="userSpaceOnUse">
<stop stop-color="#9992B0"/>
<stop offset="1" stop-color="#5B566D"/>
</linearGradient>
<linearGradient id="paint60_linear_1_1341" x1="271.315" y1="10.582" x2="271.315" y2="34.0703" gradientUnits="userSpaceOnUse">
<stop stop-color="#9992B0"/>
<stop offset="1" stop-color="#5B566D"/>
</linearGradient>
<linearGradient id="paint61_linear_1_1341" x1="291.374" y1="10.582" x2="291.374" y2="34.0703" gradientUnits="userSpaceOnUse">
<stop stop-color="#9992B0"/>
<stop offset="1" stop-color="#5B566D"/>
</linearGradient>
<linearGradient id="paint62_linear_1_1341" x1="221.315" y1="18.6055" x2="221.315" y2="26.0469" gradientUnits="userSpaceOnUse">
<stop stop-color="#9992B0"/>
<stop offset="1" stop-color="#5B566D"/>
</linearGradient>
<linearGradient id="paint63_linear_1_1341" x1="301.374" y1="18.6055" x2="301.374" y2="26.0469" gradientUnits="userSpaceOnUse">
<stop stop-color="#9992B0"/>
<stop offset="1" stop-color="#5B566D"/>
</linearGradient>
<linearGradient id="paint64_linear_1_1341" x1="321.374" y1="18.6055" x2="321.374" y2="26.0469" gradientUnits="userSpaceOnUse">
<stop stop-color="#9992B0"/>
<stop offset="1" stop-color="#5B566D"/>
</linearGradient>
<linearGradient id="paint65_linear_1_1341" x1="231.315" y1="18.6055" x2="231.315" y2="26.0469" gradientUnits="userSpaceOnUse">
<stop stop-color="#9992B0"/>
<stop offset="1" stop-color="#5B566D"/>
</linearGradient>
<linearGradient id="paint66_linear_1_1341" x1="311.374" y1="18.6055" x2="311.374" y2="26.0469" gradientUnits="userSpaceOnUse">
<stop stop-color="#9992B0"/>
<stop offset="1" stop-color="#5B566D"/>
</linearGradient>
<linearGradient id="paint67_linear_1_1341" x1="331.374" y1="18.6055" x2="331.374" y2="26.0469" gradientUnits="userSpaceOnUse">
<stop stop-color="#9992B0"/>
<stop offset="1" stop-color="#5B566D"/>
</linearGradient>
<linearGradient id="paint68_linear_1_1341" x1="236.315" y1="18.6055" x2="236.315" y2="26.0469" gradientUnits="userSpaceOnUse">
<stop stop-color="#9992B0"/>
<stop offset="1" stop-color="#5B566D"/>
</linearGradient>
<linearGradient id="paint69_linear_1_1341" x1="316.374" y1="18.6055" x2="316.374" y2="26.0469" gradientUnits="userSpaceOnUse">
<stop stop-color="#9992B0"/>
<stop offset="1" stop-color="#5B566D"/>
</linearGradient>
<linearGradient id="paint70_linear_1_1341" x1="336.374" y1="18.6055" x2="336.374" y2="26.0469" gradientUnits="userSpaceOnUse">
<stop stop-color="#9992B0"/>
<stop offset="1" stop-color="#5B566D"/>
</linearGradient>
<linearGradient id="paint71_linear_1_1341" x1="226.315" y1="17.0703" x2="226.315" y2="27.582" gradientUnits="userSpaceOnUse">
<stop stop-color="#9992B0"/>
<stop offset="1" stop-color="#5B566D"/>
</linearGradient>
<linearGradient id="paint72_linear_1_1341" x1="306.374" y1="17.0703" x2="306.374" y2="27.582" gradientUnits="userSpaceOnUse">
<stop stop-color="#9992B0"/>
<stop offset="1" stop-color="#5B566D"/>
</linearGradient>
<linearGradient id="paint73_linear_1_1341" x1="326.374" y1="17.0703" x2="326.374" y2="27.582" gradientUnits="userSpaceOnUse">
<stop stop-color="#9992B0"/>
<stop offset="1" stop-color="#5B566D"/>
</linearGradient>
<linearGradient id="paint74_linear_1_1341" x1="241.315" y1="17.0703" x2="241.315" y2="27.582" gradientUnits="userSpaceOnUse">
<stop stop-color="#9992B0"/>
<stop offset="1" stop-color="#5B566D"/>
</linearGradient>
<linearGradient id="paint75_linear_1_1341" x1="296.374" y1="17.0703" x2="296.374" y2="27.582" gradientUnits="userSpaceOnUse">
<stop stop-color="#9992B0"/>
<stop offset="1" stop-color="#5B566D"/>
</linearGradient>
<linearGradient id="paint76_linear_1_1341" x1="246.315" y1="13.0664" x2="246.315" y2="31.5859" gradientUnits="userSpaceOnUse">
<stop stop-color="#9992B0"/>
<stop offset="1" stop-color="#5B566D"/>
</linearGradient>
<linearGradient id="paint77_linear_1_1341" x1="206.315" y1="0" x2="206.315" y2="44.6523" gradientUnits="userSpaceOnUse">
<stop stop-color="#9992B0"/>
<stop offset="1" stop-color="#5B566D"/>
</linearGradient>
<linearGradient id="paint78_linear_1_1341" x1="261.315" y1="0" x2="261.315" y2="44.6523" gradientUnits="userSpaceOnUse">
<stop stop-color="#9992B0"/>
<stop offset="1" stop-color="#5B566D"/>
</linearGradient>
<linearGradient id="paint79_linear_1_1341" x1="281.315" y1="0" x2="281.315" y2="44.6523" gradientUnits="userSpaceOnUse">
<stop stop-color="#9992B0"/>
<stop offset="1" stop-color="#5B566D"/>
</linearGradient>
</defs>
</svg>
