<svg width="32" height="32" viewBox="0 0 32 32" fill="none" xmlns="http://www.w3.org/2000/svg">
<g id="Group 1246">
<circle id="Ellipse 117" cx="16" cy="16" r="16" fill="#F2F2F7"/>
<g id="&#240;&#159;&#166;&#134; icon &#34;open book&#34;">
<path id="Vector" d="M15.9814 22V13.25C15.9814 12.5596 16.5169 12 17.1775 12H21.6027C21.8009 12 21.9615 12.1679 21.9615 12.375V20.5714" stroke="#565359" stroke-linecap="round"/>
<path id="Vector_2" d="M15.9801 22V13.25C15.9801 12.5596 15.4446 12 14.7841 12H10.3588C10.1606 12 10 12.1679 10 12.375V20.5714" stroke="#565359" stroke-linecap="round"/>
<path id="Vector_3" d="M17.1748 20.7495H21.9589" stroke="#565359" stroke-linecap="round"/>
<path id="Vector_4" d="M14.7841 20.7495H10" stroke="#565359" stroke-linecap="round"/>
<path id="Vector_5" d="M15.9814 21.9995C15.9814 21.3091 16.5169 20.7495 17.1775 20.7495" stroke="#565359" stroke-linecap="round" stroke-linejoin="round"/>
<path id="Vector_6" d="M15.9792 21.9995C15.9792 21.3091 15.4438 20.7495 14.7832 20.7495" stroke="#565359" stroke-linecap="round" stroke-linejoin="round"/>
</g>
</g>
</svg>
