<svg width="21" height="15" viewBox="0 0 21 15" fill="none" xmlns="http://www.w3.org/2000/svg">
<path d="M1 12.4284V11.7141C1 8.95268 3.23858 6.71411 6 6.71411C7.87292 6.71411 9.50532 7.74389 10.3619 9.26813" stroke="#6B6585" stroke-width="2" stroke-linecap="round" stroke-linejoin="round"/>
<path d="M5.99996 6.71429C7.57789 6.71429 8.85711 5.43507 8.85711 3.85714C8.85711 2.27919 7.57789 1 5.99996 1C4.42201 1 3.14282 2.27919 3.14282 3.85714C3.14282 5.43507 4.42201 6.71429 5.99996 6.71429Z" stroke="#6B6585" stroke-width="2" stroke-linecap="round" stroke-linejoin="round"/>
<path d="M9 14V13.25C9 10.3505 11.3505 8 14.25 8C17.1495 8 19.5 10.3505 19.5 13.25V14" stroke="#6B6585" stroke-width="2" stroke-linecap="round" stroke-linejoin="round"/>
<path d="M14.25 8C15.9068 8 17.25 6.65682 17.25 5C17.25 3.34314 15.9068 2 14.25 2C12.5931 2 11.25 3.34314 11.25 5C11.25 6.65682 12.5931 8 14.25 8Z" stroke="#6B6585" stroke-width="2" stroke-linecap="round" stroke-linejoin="round"/>
</svg>
