<svg width="17" height="18" viewBox="0 0 17 18" fill="none" xmlns="http://www.w3.org/2000/svg">
<path d="M13.0021 6.1209C13.0021 4.76275 12.4963 3.46023 11.5959 2.49988C10.6956 1.53952 9.47452 1 8.20126 1C6.928 1 5.70689 1.53952 4.80655 2.49988C3.90622 3.46023 3.40042 4.76275 3.40042 6.1209C3.40042 12.0953 1 13.8022 1 13.8022H15.4025C15.4025 13.8022 13.0021 12.0953 13.0021 6.1209Z" stroke="#716B86" stroke-width="2" stroke-linecap="round" stroke-linejoin="round"/>
<path d="M9.58538 16.2026C9.44471 16.4452 9.24284 16.6465 8.99984 16.7863C8.75691 16.9263 8.48151 17 8.20114 17C7.92077 17 7.64536 16.9263 7.40244 16.7863C7.15951 16.6465 6.95756 16.4452 6.81689 16.2026" stroke="#716B86" stroke-width="2" stroke-linecap="round" stroke-linejoin="round"/>
</svg>
