<svg width="13" height="22" viewBox="0 0 13 22" fill="none" xmlns="http://www.w3.org/2000/svg">
<g id="&#240;&#159;&#166;&#134; icon &#34;google docs&#34;">
<g id="&#240;&#159;&#166;&#134; icon &#34;rocket&#34;">
<path id="Vector" d="M10.2097 9.56526L8.38604 15.6643H4.84731L3.02366 9.56526C2.50365 7.82609 2.83392 5.93094 3.90722 4.49508L6.19839 1.43002C6.4109 1.14572 6.82245 1.14572 7.03495 1.43002L9.3261 4.49508C10.3994 5.93094 10.7297 7.82609 10.2097 9.56526Z" stroke="#36303D" stroke-width="1.5" stroke-linecap="round" stroke-linejoin="round"/>
<path id="Vector_2" d="M4.84741 18.4434C4.84741 20.2926 6.61678 21.2172 6.61678 21.2172C6.61678 21.2172 8.38615 20.2926 8.38615 18.4434" stroke="#36303D" stroke-width="1.5" stroke-linecap="round" stroke-linejoin="round"/>
<path id="Vector_3" d="M3.52074 11.5078C0.42435 13.8194 2.19372 17.5178 2.19372 17.5178L4.84777 15.6686" stroke="#36303D" stroke-width="1.5" stroke-linecap="round" stroke-linejoin="round"/>
<path id="Vector_4" d="M10.0924 11.5078C13.1888 13.8194 11.4194 17.5178 11.4194 17.5178L8.76538 15.6686" stroke="#36303D" stroke-width="1.5" stroke-linecap="round" stroke-linejoin="round"/>
<path id="Vector_5" d="M6.61678 10.1174C5.63956 10.1174 4.84741 9.28951 4.84741 8.26818C4.84741 7.24688 5.63956 6.41895 6.61678 6.41895C7.594 6.41895 8.38615 7.24688 8.38615 8.26818C8.38615 9.28951 7.594 10.1174 6.61678 10.1174Z" stroke="#36303D" stroke-width="1.5" stroke-linecap="round" stroke-linejoin="round"/>
</g>
</g>
</svg>
