<svg width="20" height="14" viewBox="0 0 20 14" fill="none" xmlns="http://www.w3.org/2000/svg">
<path d="M5.28585 9.57146C5.75924 9.57146 6.143 9.18772 6.143 8.71432C6.143 8.24092 5.75924 7.85718 5.28585 7.85718C4.81247 7.85718 4.42871 8.24092 4.42871 8.71432C4.42871 9.18772 4.81247 9.57146 5.28585 9.57146Z" fill="#716B86" stroke="#716B86" stroke-linecap="round" stroke-linejoin="round"/>
<path d="M1 4.42857V1.51429C1 1.23025 1.23025 1 1.51429 1H17.6286C17.9126 1 18.1429 1.23025 18.1429 1.51429V4.42857M1 4.42857V12.4857C1 12.7698 1.23025 13 1.51429 13H17.6286C17.9126 13 18.1429 12.7698 18.1429 12.4857V4.42857M1 4.42857H18.1429" stroke="#716B86" stroke-width="2" stroke-linecap="round" stroke-linejoin="round"/>
</svg>
