<svg width="27" height="47" viewBox="0 0 27 47" fill="none" xmlns="http://www.w3.org/2000/svg">
<g id="&#240;&#159;&#166;&#134; icon &#34;rocket&#34;">
<path id="Vector" d="M21.6156 20.3524L17.5172 33.4667H9.5647L5.46647 20.3524C4.29784 16.6128 5.04005 12.5378 7.45207 9.4504L12.601 2.85985C13.0785 2.24854 14.0034 2.24854 14.4809 2.85985L19.6298 9.4504C22.0418 12.5378 22.784 16.6128 21.6156 20.3524Z" stroke="#5B566D" stroke-width="3" stroke-linecap="round" stroke-linejoin="round"/>
<path id="Vector_2" d="M9.56494 39.4414C9.56494 43.4177 13.5412 45.4058 13.5412 45.4058C13.5412 45.4058 17.5175 43.4177 17.5175 39.4414" stroke="#5B566D" stroke-width="3" stroke-linecap="round" stroke-linejoin="round"/>
<path id="Vector_3" d="M6.58344 24.5293C-0.375021 29.4996 3.60124 37.4521 3.60124 37.4521L9.56563 33.4759" stroke="#5B566D" stroke-width="3" stroke-linecap="round" stroke-linejoin="round"/>
<path id="Vector_4" d="M21.3513 24.5293C28.3098 29.4996 24.3335 37.4521 24.3335 37.4521L18.3691 33.4759" stroke="#5B566D" stroke-width="3" stroke-linecap="round" stroke-linejoin="round"/>
<path id="Vector_5" d="M13.5412 21.5404C11.3451 21.5404 9.56494 19.7602 9.56494 17.5642C9.56494 15.3681 11.3451 13.5879 13.5412 13.5879C15.7373 13.5879 17.5175 15.3681 17.5175 17.5642C17.5175 19.7602 15.7373 21.5404 13.5412 21.5404Z" stroke="#5B566D" stroke-width="3" stroke-linecap="round" stroke-linejoin="round"/>
</g>
</svg>
