<svg width="13" height="22" viewBox="0 0 13 22" fill="none" xmlns="http://www.w3.org/2000/svg">
<path d="M10.1328 9.47103L8.30913 15.5701H4.7704L2.94676 9.47103C2.42674 7.73185 2.75701 5.8367 3.83032 4.40084L6.12149 1.33578C6.33399 1.05148 6.74555 1.05148 6.95805 1.33578L9.2492 4.40084C10.3225 5.8367 10.6527 7.73185 10.1328 9.47103Z" stroke="#958FA9" stroke-width="1.5" stroke-linecap="round" stroke-linejoin="round"/>
<path d="M4.77051 18.3486C4.77051 20.1979 6.53987 21.1225 6.53987 21.1225C6.53987 21.1225 8.30924 20.1979 8.30924 18.3486" stroke="#958FA9" stroke-width="1.5" stroke-linecap="round" stroke-linejoin="round"/>
<path d="M3.44384 11.4136C0.347445 13.7251 2.11681 17.4236 2.11681 17.4236L4.77086 15.5743" stroke="#958FA9" stroke-width="1.5" stroke-linecap="round" stroke-linejoin="round"/>
<path d="M10.0155 11.4136C13.1119 13.7251 11.3425 17.4236 11.3425 17.4236L8.68848 15.5743" stroke="#958FA9" stroke-width="1.5" stroke-linecap="round" stroke-linejoin="round"/>
<path d="M6.53987 10.0232C5.56265 10.0232 4.77051 9.19527 4.77051 8.17394C4.77051 7.15264 5.56265 6.32471 6.53987 6.32471C7.5171 6.32471 8.30924 7.15264 8.30924 8.17394C8.30924 9.19527 7.5171 10.0232 6.53987 10.0232Z" stroke="#958FA9" stroke-width="1.5" stroke-linecap="round" stroke-linejoin="round"/>
</svg>
