<svg width="34" height="34" viewBox="0 0 34 34" fill="none" xmlns="http://www.w3.org/2000/svg">
<g id="Group 1198">
<rect id="Rectangle 255" x="0.5" y="0.5" width="33" height="33" rx="16.5" fill="#F9F9FB" stroke="#E8E7E9"/>
<g id="Group 104">
<path id="Vector 5" d="M23.4519 10.1024L17.8771 13.8195C17.7721 13.8895 17.7573 14.0381 17.8466 14.1273L19.7126 15.9934C19.802 16.0827 19.9508 16.0679 20.0207 15.9626L23.7294 10.3795C23.8503 10.1976 23.6336 9.98126 23.4519 10.1024Z" fill="#6B6585"/>
<ellipse id="Ellipse 12" cx="16.9048" cy="17.3618" rx="3.48487" ry="3.48487" fill="#E8E6ED"/>
<path id="Vector 5_2" d="M10.3587 10.1024L15.9335 13.8195C16.0385 13.8895 16.0532 14.0381 15.964 14.1273L14.0979 15.9934C14.0086 16.0827 13.8598 16.0679 13.7899 15.9626L10.0811 10.3795C9.96028 10.1976 10.1769 9.98126 10.3587 10.1024Z" fill="#6B6585"/>
<path id="Vector 5_3" d="M10.1517 24.2765L15.7265 20.5594C15.8315 20.4894 15.8462 20.3408 15.7569 20.2516L13.8909 18.3855C13.8015 18.2962 13.6528 18.311 13.5829 18.4163L9.87411 23.9994C9.75325 24.1813 9.96991 24.3976 10.1517 24.2765Z" fill="#6B6585"/>
<path id="Vector 5_4" d="M23.2448 24.2765L17.67 20.5594C17.565 20.4894 17.5503 20.3408 17.6396 20.2516L19.5056 18.3855C19.595 18.2962 19.7437 18.311 19.8136 18.4163L23.5224 23.9994C23.6432 24.1813 23.4266 24.3976 23.2448 24.2765Z" fill="#6B6585"/>
<path id="Vector 3" d="M25.2442 16.8215L19.7412 14.9862C19.6117 14.943 19.4779 15.0394 19.4779 15.176L19.4779 18.863C19.4779 18.9997 19.6121 19.0961 19.7417 19.0525L25.2447 17.2008C25.4266 17.1396 25.4262 16.8822 25.2442 16.8215Z" fill="#5B566D"/>
<path id="Vector 3_2" d="M8.56635 16.8215L14.0694 14.9862C14.1989 14.943 14.3326 15.0394 14.3326 15.176L14.3326 18.863C14.3326 18.9997 14.1985 19.0961 14.0689 19.0525L8.56585 17.2008C8.38397 17.1396 8.38431 16.8822 8.56635 16.8215Z" fill="#5B566D"/>
<path id="Vector 4" d="M16.7063 8.56635L14.871 14.0694C14.8278 14.1989 14.9242 14.3326 15.0607 14.3326H18.7477C18.8845 14.3326 18.9809 14.1985 18.9373 14.0689L17.0856 8.56585C17.0244 8.38397 16.767 8.38431 16.7063 8.56635Z" fill="#5B566D"/>
<path id="Vector 4_2" d="M17.1042 25.4336L18.9395 19.9306C18.9827 19.8011 18.8863 19.6674 18.7498 19.6674H15.0628C14.9261 19.6674 14.8297 19.8015 14.8733 19.9311L16.725 25.4342C16.7862 25.616 17.0435 25.6157 17.1042 25.4336Z" fill="#5B566D"/>
<path id="Ellipse 12_2" d="M14.1709 17.02C14.1709 18.5305 15.3953 19.7549 16.9058 19.7549C18.4162 19.7549 19.6406 18.5305 19.6406 17.02C19.6406 15.5096 18.4162 14.2852 16.9058 14.2852C15.3953 14.2852 14.1709 15.5096 14.1709 17.02Z" fill="#F9F9FB" stroke="#5B566D" stroke-width="1.5"/>
</g>
</g>
</svg>
