<svg width="41" height="41" viewBox="0 0 41 41" fill="none" xmlns="http://www.w3.org/2000/svg">
<g id="Book-IconContainter">
<rect id="Rectangle 422" x="0.225586" y="0.305176" width="40" height="40" fill="white"/>
<g id="&#240;&#159;&#166;&#134; icon &#34;open book&#34;">
<path id="Vector" d="M20.2256 31.8052V11.6802C20.2256 10.0924 21.5127 8.80518 23.1006 8.80518H33.7381C34.2145 8.80518 34.6006 9.19133 34.6006 9.66768V28.5195" stroke="#5B566D" stroke-width="3" stroke-linecap="round"/>
<path id="Vector_2" d="M20.2256 31.8052V11.6802C20.2256 10.0924 18.9384 8.80518 17.3506 8.80518H6.71309C6.23674 8.80518 5.85059 9.19133 5.85059 9.66768V28.5195" stroke="#5B566D" stroke-width="3" stroke-linecap="round"/>
<path id="Vector_3" d="M23.1006 28.9297H34.6006" stroke="#5B566D" stroke-width="3" stroke-linecap="round"/>
<path id="Vector_4" d="M17.3506 28.9297H5.85059" stroke="#5B566D" stroke-width="3" stroke-linecap="round"/>
<path id="Vector_5" d="M20.2256 31.8047C20.2256 30.2168 21.5127 28.9297 23.1006 28.9297" stroke="#5B566D" stroke-width="3" stroke-linecap="round" stroke-linejoin="round"/>
<path id="Vector_6" d="M20.2256 31.8047C20.2256 30.2168 18.9384 28.9297 17.3506 28.9297" stroke="#5B566D" stroke-width="3" stroke-linecap="round" stroke-linejoin="round"/>
</g>
</g>
</svg>
