<svg width="41" height="41" viewBox="0 0 41 41" fill="none" xmlns="http://www.w3.org/2000/svg">
<g id="Rocket - Icon Container">
<rect id="Rectangle 422" x="0.849121" y="0.679688" width="40" height="40" fill="white"/>
<g id="&#240;&#159;&#166;&#134; icon &#34;rocket&#34;">
<path id="Vector" d="M27.0736 17.7895L23.7381 28.4628H17.2657L13.9303 17.7895C12.9792 14.7459 13.5833 11.4294 15.5463 8.91669L19.7369 3.55283C20.1255 3.05531 20.8783 3.05531 21.2669 3.55283L25.4574 8.91669C27.4205 11.4294 28.0245 14.7459 27.0736 17.7895Z" stroke="#5B566D" stroke-width="2.5" stroke-linecap="round" stroke-linejoin="round"/>
<path id="Vector_2" d="M17.2661 33.3257C17.2661 36.5618 20.5023 38.1799 20.5023 38.1799C20.5023 38.1799 23.7384 36.5618 23.7384 33.3257" stroke="#5B566D" stroke-width="2.5" stroke-linecap="round" stroke-linejoin="round"/>
<path id="Vector_3" d="M14.8393 21.1895C9.17605 25.2347 12.4122 31.707 12.4122 31.707L17.2664 28.4708" stroke="#5B566D" stroke-width="2.5" stroke-linecap="round" stroke-linejoin="round"/>
<path id="Vector_4" d="M26.8583 21.1895C32.5216 25.2347 29.2854 31.707 29.2854 31.707L24.4312 28.4708" stroke="#5B566D" stroke-width="2.5" stroke-linecap="round" stroke-linejoin="round"/>
<path id="Vector_5" d="M20.5023 18.7565C18.7149 18.7565 17.2661 17.3077 17.2661 15.5203C17.2661 13.7331 18.7149 12.2842 20.5023 12.2842C22.2896 12.2842 23.7384 13.7331 23.7384 15.5203C23.7384 17.3077 22.2896 18.7565 20.5023 18.7565Z" stroke="#5B566D" stroke-width="2.5" stroke-linecap="round" stroke-linejoin="round"/>
</g>
</g>
</svg>
