<svg width="40" height="40" viewBox="0 0 40 40" fill="none" xmlns="http://www.w3.org/2000/svg">
<g id="Buttons">
<rect width="40" height="40" rx="20" fill="#5B566D"/>
<g id="&#240;&#159;&#166;&#134; icon &#34;arrow back outline&#34;">
<path id="Vector" d="M20.9178 26.6376L20.9178 15.0039L24.9145 18.5646C25.1017 18.7311 25.343 18.8112 25.5854 18.7873C25.8278 18.7634 26.0514 18.6374 26.207 18.4371C26.3626 18.2368 26.4374 17.9785 26.4151 17.7192C26.3927 17.4598 26.275 17.2205 26.0878 17.054L20.5878 12.1494C20.5441 12.1164 20.4981 12.0869 20.4503 12.0612C20.4045 12.0612 20.377 12.0612 20.3311 11.9925C20.226 11.948 20.1141 11.9248 20.0011 11.9238C19.8881 11.9248 19.7762 11.948 19.6711 11.9925C19.6253 11.9925 19.5978 11.9925 19.552 12.0612C19.5042 12.0869 19.4582 12.1164 19.4145 12.1494L13.9145 17.054C13.811 17.1462 13.7278 17.2617 13.6707 17.3923C13.6137 17.5228 13.5843 17.6652 13.5845 17.8093C13.584 18.0385 13.6586 18.2606 13.7953 18.4371C13.8723 18.5364 13.9668 18.6185 14.0734 18.6787C14.1801 18.7389 14.2968 18.776 14.4168 18.7878C14.5369 18.7997 14.658 18.7861 14.7731 18.7478C14.8882 18.7095 14.9952 18.6472 15.0878 18.5646L19.0845 15.0039L19.0845 26.6376C19.0845 26.8977 19.181 27.1472 19.353 27.3312C19.5249 27.5151 19.758 27.6185 20.0011 27.6185C20.2442 27.6185 20.4774 27.5151 20.6493 27.3312C20.8212 27.1472 20.9178 26.8977 20.9178 26.6376Z" fill="white"/>
</g>
</g>
</svg>
