<svg width="401" height="59" viewBox="0 0 401 59" fill="none" xmlns="http://www.w3.org/2000/svg">
<mask id="mask0_1668_6080" style="mask-type:alpha" maskUnits="userSpaceOnUse" x="0" y="0" width="401" height="59">
<rect x="0.364258" y="0.555664" width="400" height="58.0342" fill="white"/>
</mask>
<g mask="url(#mask0_1668_6080)">
<rect x="2.21387" y="13.0674" width="2" height="33.0117" rx="1" fill="#958FA9"/>
<rect x="12.2139" y="13.0674" width="2" height="33.0117" rx="1" fill="#958FA9"/>
<rect x="57.2139" y="13.0674" width="2" height="33.0117" rx="1" fill="#958FA9"/>
<rect x="87.2139" y="13.0674" width="2" height="33.0117" rx="1" fill="#958FA9"/>
<rect x="67.2139" y="13.0674" width="2" height="33.0117" rx="1" fill="#958FA9"/>
<rect x="77.2139" y="13.0674" width="2" height="33.0117" rx="1" fill="#958FA9"/>
<rect x="17.2139" y="17.8291" width="2" height="23.4883" rx="1" fill="#958FA9"/>
<rect x="52.2139" y="17.8291" width="2" height="23.4883" rx="1" fill="#958FA9"/>
<rect x="72.2139" y="17.8291" width="2" height="23.4883" rx="1" fill="#958FA9"/>
<rect x="92.2725" y="17.8291" width="2" height="23.4883" rx="1" fill="#958FA9"/>
<rect x="22.2139" y="25.8525" width="2" height="7.44141" rx="1" fill="#958FA9"/>
<rect x="32.2139" y="25.8525" width="2" height="7.44141" rx="1" fill="#958FA9"/>
<rect x="37.2139" y="25.8525" width="2" height="7.44141" rx="1" fill="#958FA9"/>
<rect x="27.2139" y="24.3174" width="2" height="10.5117" rx="1" fill="#958FA9"/>
<rect x="42.2139" y="24.3174" width="2" height="10.5117" rx="1" fill="#958FA9"/>
<rect x="97.2725" y="24.3174" width="2" height="10.5117" rx="1" fill="#958FA9"/>
<rect x="47.2139" y="20.3135" width="2" height="18.5195" rx="1" fill="#958FA9"/>
<rect x="7.21387" y="7.24707" width="2" height="44.6523" rx="1" fill="#958FA9"/>
<rect x="62.2139" y="7.24707" width="2" height="44.6523" rx="1" fill="#958FA9"/>
<rect x="82.2139" y="7.24707" width="2" height="44.6523" rx="1" fill="#958FA9"/>
<rect x="101.931" y="13.0674" width="2" height="33.0117" rx="1" fill="#958FA9"/>
<rect x="111.931" y="13.0674" width="2" height="33.0117" rx="1" fill="#958FA9"/>
<rect x="156.931" y="13.0674" width="2" height="33.0117" rx="1" fill="#958FA9"/>
<rect x="186.931" y="13.0674" width="2" height="33.0117" rx="1" fill="#958FA9"/>
<rect x="166.931" y="13.0674" width="2" height="33.0117" rx="1" fill="#958FA9"/>
<rect x="176.931" y="13.0674" width="2" height="33.0117" rx="1" fill="#958FA9"/>
<rect x="116.931" y="17.8291" width="2" height="23.4883" rx="1" fill="#958FA9"/>
<rect x="151.931" y="17.8291" width="2" height="23.4883" rx="1" fill="#958FA9"/>
<rect x="171.931" y="17.8291" width="2" height="23.4883" rx="1" fill="#958FA9"/>
<rect x="191.989" y="17.8291" width="2" height="23.4883" rx="1" fill="#958FA9"/>
<rect x="121.931" y="25.8525" width="2" height="7.44141" rx="1" fill="#958FA9"/>
<rect x="131.931" y="25.8525" width="2" height="7.44141" rx="1" fill="#958FA9"/>
<rect x="136.931" y="25.8525" width="2" height="7.44141" rx="1" fill="#958FA9"/>
<rect x="126.931" y="24.3174" width="2" height="10.5117" rx="1" fill="#958FA9"/>
<rect x="141.931" y="24.3174" width="2" height="10.5117" rx="1" fill="#958FA9"/>
<rect x="196.989" y="24.3174" width="2" height="10.5117" rx="1" fill="#958FA9"/>
<rect x="146.931" y="20.3135" width="2" height="18.5195" rx="1" fill="#958FA9"/>
<rect x="106.931" y="7.24707" width="2" height="44.6523" rx="1" fill="#958FA9"/>
<rect x="161.931" y="7.24707" width="2" height="44.6523" rx="1" fill="#958FA9"/>
<rect x="181.931" y="7.24707" width="2" height="44.6523" rx="1" fill="#958FA9"/>
<rect x="341.364" y="13.0674" width="2" height="33.0117" rx="1" fill="#958FA9"/>
<rect x="351.364" y="13.0674" width="2" height="33.0117" rx="1" fill="#958FA9"/>
<rect x="396.364" y="13.0674" width="2" height="33.0117" rx="1" fill="#958FA9"/>
<rect x="356.364" y="17.8291" width="2" height="23.4883" rx="1" fill="#958FA9"/>
<rect x="391.364" y="17.8291" width="2" height="23.4883" rx="1" fill="#958FA9"/>
<rect x="361.364" y="25.8525" width="2" height="7.44141" rx="1" fill="#958FA9"/>
<rect x="371.364" y="25.8525" width="2" height="7.44141" rx="1" fill="#958FA9"/>
<rect x="376.364" y="25.8525" width="2" height="7.44141" rx="1" fill="#958FA9"/>
<rect x="366.364" y="24.3174" width="2" height="10.5117" rx="1" fill="#958FA9"/>
<rect x="381.364" y="24.3174" width="2" height="10.5117" rx="1" fill="#958FA9"/>
<rect x="386.364" y="20.3135" width="2" height="18.5195" rx="1" fill="#958FA9"/>
<rect x="346.364" y="7.24707" width="2" height="44.6523" rx="1" fill="#958FA9"/>
<rect x="201.647" y="13.0674" width="2" height="33.0117" rx="1" fill="#958FA9"/>
<rect x="211.647" y="13.0674" width="2" height="33.0117" rx="1" fill="#958FA9"/>
<rect x="256.647" y="13.0674" width="2" height="33.0117" rx="1" fill="#958FA9"/>
<rect x="286.647" y="13.0674" width="2" height="33.0117" rx="1" fill="#958FA9"/>
<rect x="266.647" y="13.0674" width="2" height="33.0117" rx="1" fill="#958FA9"/>
<rect x="276.647" y="13.0674" width="2" height="33.0117" rx="1" fill="#958FA9"/>
<rect x="216.647" y="17.8291" width="2" height="23.4883" rx="1" fill="#958FA9"/>
<rect x="251.647" y="17.8291" width="2" height="23.4883" rx="1" fill="#958FA9"/>
<rect x="271.647" y="17.8291" width="2" height="23.4883" rx="1" fill="#958FA9"/>
<rect x="291.706" y="17.8291" width="2" height="23.4883" rx="1" fill="#958FA9"/>
<rect x="221.647" y="25.8525" width="2" height="7.44141" rx="1" fill="#958FA9"/>
<rect x="301.706" y="25.8525" width="2" height="7.44141" rx="1" fill="#958FA9"/>
<rect x="321.706" y="25.8525" width="2" height="7.44141" rx="1" fill="#958FA9"/>
<rect x="231.647" y="25.8525" width="2" height="7.44141" rx="1" fill="#958FA9"/>
<rect x="311.706" y="25.8525" width="2" height="7.44141" rx="1" fill="#958FA9"/>
<rect x="331.706" y="25.8525" width="2" height="7.44141" rx="1" fill="#958FA9"/>
<rect x="236.647" y="25.8525" width="2" height="7.44141" rx="1" fill="#958FA9"/>
<rect x="316.706" y="25.8525" width="2" height="7.44141" rx="1" fill="#958FA9"/>
<rect x="336.706" y="25.8525" width="2" height="7.44141" rx="1" fill="#958FA9"/>
<rect x="226.647" y="24.3174" width="2" height="10.5117" rx="1" fill="#958FA9"/>
<rect x="306.706" y="24.3174" width="2" height="10.5117" rx="1" fill="#958FA9"/>
<rect x="326.706" y="24.3174" width="2" height="10.5117" rx="1" fill="#958FA9"/>
<rect x="241.647" y="24.3174" width="2" height="10.5117" rx="1" fill="#958FA9"/>
<rect x="296.706" y="24.3174" width="2" height="10.5117" rx="1" fill="#958FA9"/>
<rect x="246.647" y="20.3135" width="2" height="18.5195" rx="1" fill="#958FA9"/>
<rect x="206.647" y="7.24707" width="2" height="44.6523" rx="1" fill="#958FA9"/>
<rect x="261.647" y="7.24707" width="2" height="44.6523" rx="1" fill="#958FA9"/>
<rect x="281.647" y="7.24707" width="2" height="44.6523" rx="1" fill="#958FA9"/>
<rect x="396.165" y="13.0674" width="2" height="33.0117" rx="1" fill="#958FA9"/>
</g>
</svg>
