<svg width="19" height="19" viewBox="0 0 19 19" fill="none" xmlns="http://www.w3.org/2000/svg">
<path d="M16.1189 2.27627L10.544 5.99331C10.439 6.06333 10.4243 6.2119 10.5136 6.30114L12.3796 8.1672C12.469 8.25654 12.6177 8.24168 12.6877 8.13644L16.3964 2.55334C16.5173 2.37139 16.3006 2.15509 16.1189 2.27627Z" fill="#6B6585"/>
<ellipse cx="9.57179" cy="9.53565" rx="3.48487" ry="3.48487" fill="#E8E6ED"/>
<path d="M3.02519 2.27627L8.59999 5.99331C8.705 6.06333 8.7197 6.2119 8.63046 6.30114L6.7644 8.1672C6.67506 8.25654 6.5263 8.24168 6.45639 8.13644L2.74765 2.55334C2.62678 2.37139 2.84345 2.15509 3.02519 2.27627Z" fill="#6B6585"/>
<path d="M2.81865 16.4503L8.39345 12.7332C8.49845 12.6632 8.51316 12.5147 8.42392 12.4254L6.55786 10.5594C6.46852 10.47 6.31975 10.4849 6.24984 10.5901L2.5411 16.1732C2.42024 16.3552 2.6369 16.5715 2.81865 16.4503Z" fill="#6B6585"/>
<path d="M15.9118 16.4503L10.337 12.7332C10.232 12.6632 10.2173 12.5147 10.3065 12.4254L12.1726 10.5594C12.2619 10.47 12.4107 10.4849 12.4806 10.5901L16.1894 16.1732C16.3102 16.3552 16.0936 16.5715 15.9118 16.4503Z" fill="#6B6585"/>
<path d="M17.9107 8.99536L12.4077 7.16007C12.2782 7.11688 12.1444 7.21327 12.1444 7.3498L12.1444 11.0368C12.1444 11.1735 12.2786 11.2699 12.4082 11.2263L17.9112 9.37464C18.0931 9.31344 18.0927 9.05607 17.9107 8.99536Z" fill="#5B566D"/>
<path d="M1.23335 8.99536L6.73635 7.16007C6.86587 7.11688 6.99963 7.21327 6.99963 7.3498L6.99963 11.0368C6.99963 11.1735 6.86546 11.2699 6.73585 11.2263L1.23284 9.37464C1.05096 9.31344 1.0513 9.05607 1.23335 8.99536Z" fill="#5B566D"/>
<path d="M9.37329 0.740182L7.538 6.24319C7.49481 6.3727 7.5912 6.50647 7.72773 6.50647L11.4147 6.50647C11.5515 6.50647 11.6479 6.37229 11.6043 6.24268L9.75257 0.739674C9.69137 0.557795 9.434 0.55814 9.37329 0.740182Z" fill="#5B566D"/>
<path d="M9.77075 17.6075L11.606 12.1045C11.6492 11.975 11.5528 11.8412 11.4163 11.8412H7.72933C7.59258 11.8412 7.49616 11.9754 7.53978 12.105L9.39147 17.608C9.45267 17.7899 9.71004 17.7895 9.77075 17.6075Z" fill="#5B566D"/>
<path d="M6.83739 9.19386C6.83739 10.7043 8.06183 11.9287 9.57226 11.9287C11.0827 11.9287 12.3071 10.7043 12.3071 9.19386C12.3071 7.68343 11.0827 6.45898 9.57226 6.45898C8.06183 6.45898 6.83739 7.68343 6.83739 9.19386Z" fill="#F9F9FB" stroke="#5B566D" stroke-width="1.5"/>
</svg>
