<svg width="21" height="21" viewBox="0 0 21 21" fill="none" xmlns="http://www.w3.org/2000/svg">
<g id="Group 104">
<path id="Vector 5" d="M17.9277 2.96499L11.6188 7.17145C11.5138 7.24147 11.4991 7.39004 11.5884 7.47928L13.7001 9.59105C13.7895 9.68039 13.9382 9.66553 14.0082 9.56029L18.2052 3.24205C18.3261 3.0601 18.1094 2.84381 17.9277 2.96499Z" fill="#958FA9"/>
<ellipse id="Ellipse 12" cx="10.5615" cy="11.0908" rx="3.87208" ry="3.87208" fill="#E8E6ED"/>
<path id="Vector 5_2" d="M3.19488 2.96499L9.50372 7.17145C9.60872 7.24147 9.62343 7.39004 9.53419 7.47928L7.42242 9.59105C7.33308 9.68039 7.18432 9.66553 7.11441 9.56029L2.91733 3.24205C2.79647 3.0601 3.01313 2.84381 3.19488 2.96499Z" fill="#958FA9"/>
<path id="Vector 5_3" d="M2.96587 18.8358L9.27472 14.6293C9.37972 14.5593 9.39443 14.4107 9.30519 14.3215L7.19342 12.2097C7.10408 12.1204 6.95531 12.1353 6.8854 12.2405L2.68833 18.5587C2.56746 18.7407 2.78413 18.957 2.96587 18.8358Z" fill="#958FA9"/>
<path id="Vector 5_4" d="M17.6982 18.8358L11.3893 14.6293C11.2843 14.5593 11.2696 14.4107 11.3589 14.3215L13.4706 12.2097C13.56 12.1204 13.7088 12.1353 13.7787 12.2405L17.9757 18.5587C18.0966 18.7407 17.8799 18.957 17.6982 18.8358Z" fill="#958FA9"/>
<path id="Vector 3" d="M19.8892 10.5113L13.6826 8.44132C13.5531 8.39813 13.4193 8.49452 13.4193 8.63105L13.4193 12.7895C13.4193 12.9262 13.5535 13.0226 13.6831 12.979L19.8897 10.8906C20.0716 10.8294 20.0713 10.572 19.8892 10.5113Z" fill="#CDC9DD"/>
<path id="Vector 3_2" d="M1.23335 10.5113L7.43998 8.44132C7.56949 8.39813 7.70326 8.49452 7.70326 8.63105L7.70326 12.7895C7.70326 12.9262 7.56908 13.0226 7.43947 12.979L1.23284 10.8906C1.05096 10.8294 1.0513 10.572 1.23335 10.5113Z" fill="#CDC9DD"/>
<path id="Vector 4" d="M10.3619 1.25581L8.29191 7.46244C8.24871 7.59195 8.34511 7.72572 8.48163 7.72572L12.64 7.72572C12.7768 7.72572 12.8732 7.59154 12.8296 7.46193L10.7411 1.2553C10.6799 1.07342 10.4226 1.07376 10.3619 1.25581Z" fill="#CDC9DD"/>
<path id="Vector 4_2" d="M10.7617 20.1231L12.8316 13.9165C12.8748 13.787 12.7784 13.6532 12.6419 13.6532H8.48349C8.34674 13.6532 8.25032 13.7874 8.29394 13.917L10.3824 20.1236C10.4436 20.3055 10.701 20.3051 10.7617 20.1231Z" fill="#CDC9DD"/>
<path id="Ellipse 12_2" d="M7.43992 10.7119C7.43992 12.4362 8.83773 13.834 10.562 13.834C12.2863 13.834 13.6841 12.4362 13.6841 10.7119C13.6841 8.98765 12.2863 7.58984 10.562 7.58984C8.83773 7.58984 7.43992 8.98765 7.43992 10.7119Z" fill="#5B566D" stroke="#CDC9DD" stroke-width="1.5"/>
</g>
</svg>
